<svg xmlns="http://www.w3.org/2000/svg" width="128" height="128" viewBox="0 0 128 128">
  <rect width="128" height="128" rx="24" fill="#4F46E5"/>
  <path d="M64 35c-10 0-17 6-21 13-3.5 6-2.5 13 2.5 18 6 6 11 13 11 22 0 9-5 16-11 22-5 5-6 12-2.5 18 4.5 7 11 13 21 13s17-6 21-13c3.5-6 2.5-13-2.5-18-6-6-11-13-11-22 0-9 5-16 11-22 5-5 6-12 2.5-18-4-7-11-13-21-13z" fill="#fff"/>
  <circle cx="50" cy="52" r="7" fill="#4F46E5"/>
  <circle cx="78" cy="52" r="7" fill="#4F46E5"/>
  <circle cx="64" cy="70" r="6" fill="#4F46E5"/>
  <circle cx="42" cy="72" r="4" fill="#818CF8"/>
  <circle cx="86" cy="72" r="4" fill="#818CF8"/>
  <circle cx="64" cy="88" r="3" fill="#818CF8"/>
  <circle cx="50" cy="52" r="2.5" fill="#fff"/>
  <circle cx="78" cy="52" r="2.5" fill="#fff"/>
  <circle cx="64" cy="70" r="2" fill="#fff"/>
</svg>
